<svg width="60" height="60" viewBox="0 0 60 60" fill="none" xmlns="http://www.w3.org/2000/svg">
<path d="M53.1368 9.89316C50.2897 6.73782 46.3831 5.00001 42.1357 5.00001C38.9609 5.00001 36.0534 6.02563 33.4937 8.04815C32.2021 9.06906 31.0318 10.3181 30 11.7759C28.9686 10.3185 27.7978 9.06906 26.5059 8.04815C23.9466 6.02563 21.0391 5.00001 17.8643 5.00001C13.6169 5.00001 9.70985 6.73782 6.86275 9.89316C4.04964 13.0116 2.5 17.2719 2.5 21.8898C2.5 26.6427 4.23344 30.9935 7.95502 35.5822C11.2843 39.6868 16.0691 43.8536 21.6102 48.6786C23.5022 50.3264 25.6469 52.1941 27.8738 54.1836C28.4621 54.7102 29.217 55 30 55C30.7826 55 31.5379 54.7102 32.1254 54.1845C34.3523 52.1945 36.4982 50.326 38.3911 48.6773C43.9313 43.8532 48.7162 39.6868 52.0454 35.5818C55.767 30.9935 57.5 26.6427 57.5 21.8893C57.5 17.2719 55.9504 13.0116 53.1368 9.89316Z" stroke="#7C5EF3" stroke-width="4" stroke-linejoin="round"/>
<path fill-rule="evenodd" clip-rule="evenodd" d="M55.5074 13.179C56.3377 12.4418 56.4194 11.1656 55.6899 10.3285C54.9604 9.49141 53.6958 9.41042 52.8655 10.1476L29.5796 30.821L20.5296 22.785C19.6993 22.0478 18.4347 22.1286 17.7051 22.9657C16.9755 23.8027 17.0572 25.0789 17.8875 25.8162L28.151 34.9297C28.5339 35.2697 29.009 35.4357 29.4815 35.4338C30.0132 35.4855 30.5643 35.3236 30.9973 34.9392L55.5074 13.179Z" fill="#7C5EF3"/>
</svg>
